HIERARCHY
ROOT Bip001_Pelvis
{
  OFFSET 34.4345 95.6767 -26.8758
  CHANNELS 6 Xposition Yposition Zposition Zrotation Xrotation Yrotation
  JOINT Bip001_Spine
  {
    OFFSET 1.4188e-005 10.2191 -0.0116013
    CHANNELS 3 Zrotation Xrotation Yrotation
    JOINT Bip001_L_Thigh
    {
      OFFSET 11.0458 -10.2192 0.0116197
      CHANNELS 3 Zrotation Xrotation Yrotation
      JOINT Bip001_L_Calf
      {
        OFFSET -0.707118 -44.0221 0.360014
        CHANNELS 3 Zrotation Xrotation Yrotation
        JOINT Bip001_L_Foot
        {
          OFFSET -0.651902 -40.5938 -3.56146
          CHANNELS 3 Zrotation Xrotation Yrotation
          JOINT Bip001_L_Toe0
          {
            OFFSET 0.0530839 -10.2181 13.1504
            CHANNELS 3 Zrotation Xrotation Yrotation
            End Site
            {
              OFFSET -1.02532e-005 0 7.55606
            }
          }
        }
      }
    }
    JOINT Bip001_R_Thigh
    {
      OFFSET -11.0458 -10.2191 0.0115893
      CHANNELS 3 Zrotation Xrotation Yrotation
      JOINT Bip001_R_Calf
      {
        OFFSET 0.706994 -44.0221 0.35984
        CHANNELS 3 Zrotation Xrotation Yrotation
        JOINT Bip001_R_Foot
        {
          OFFSET 0.651786 -40.5938 -3.5613
          CHANNELS 3 Zrotation Xrotation Yrotation
          JOINT Bip001_R_Toe0
          {
            OFFSET -0.0531479 -10.2181 13.1504
            CHANNELS 3 Zrotation Xrotation Yrotation
            End Site
            {
              OFFSET -1.02894e-005 0 7.55606
            }
          }
        }
      }
    }
    JOINT Bip001_Spine1
    {
      OFFSET 1.87041e-005 14.5736 1.08638
      CHANNELS 3 Zrotation Xrotation Yrotation
      JOINT Bip001_Spine2
      {
        OFFSET 2.24614e-005 14.5058 -1.69078
        CHANNELS 3 Zrotation Xrotation Yrotation
        JOINT Bip001_Neck
        {
          OFFSET 2.20278e-005 15.3945 -0.489414
          CHANNELS 3 Zrotation Xrotation Yrotation
          JOINT Bip001_L_Clavicle
          {
            OFFSET 6.06036 -0.000579998 0.00836775
            CHANNELS 3 Zrotation Xrotation Yrotation
            JOINT Bip001_L_UpperArm
            {
              OFFSET 11.5509 -0.0600302 0.00193952
              CHANNELS 3 Zrotation Xrotation Yrotation
              JOINT Bip001_L_Forearm
              {
                OFFSET 25.9523 0.0806089 -2.15551
                CHANNELS 3 Zrotation Xrotation Yrotation
                JOINT Bip001_L_Hand
                {
                  OFFSET 32.2475 0.153767 1.63968
                  CHANNELS 3 Zrotation Xrotation Yrotation
                  JOINT Bip001_L_Finger0
                  {
                    OFFSET 6.04639 -2.20976 5.90322
                    CHANNELS 3 Zrotation Xrotation Yrotation
                    End Site
                    {
                      OFFSET 4.22375 -1.43895 0.606485
                    }
                  }
                  JOINT Bip001_L_Finger1
                  {
                    OFFSET 11.0826 -0.704819 -0.198153
                    CHANNELS 3 Zrotation Xrotation Yrotation
                    End Site
                    {
                      OFFSET 6.20027 -0.397518 -0.0787166
                    }
                  }
                }
              }
            }
          }
          JOINT Bip001_R_Clavicle
          {
            OFFSET -6.06037 -0.000563197 0.00835105
            CHANNELS 3 Zrotation Xrotation Yrotation
            JOINT Bip001_R_UpperArm
            {
              OFFSET -11.5509 -0.0599978 0.00190698
              CHANNELS 3 Zrotation Xrotation Yrotation
              JOINT Bip001_R_Forearm
              {
                OFFSET -25.9523 0.0806822 -2.15589
                CHANNELS 3 Zrotation Xrotation Yrotation
                JOINT Bip001_R_Hand
                {
                  OFFSET -32.2475 0.153859 1.63989
                  CHANNELS 3 Zrotation Xrotation Yrotation
                  JOINT Bip001_R_Finger0
                  {
                    OFFSET -6.04641 -2.20976 5.90317
                    CHANNELS 3 Zrotation Xrotation Yrotation
                    End Site
                    {
                      OFFSET -4.22376 -1.43895 0.60647
                    }
                  }
                  JOINT Bip001_R_Finger1
                  {
                    OFFSET -11.0826 -0.704794 -0.198182
                    CHANNELS 3 Zrotation Xrotation Yrotation
                    End Site
                    {
                      OFFSET -6.20028 -0.397504 -0.0787333
                    }
                  }
                }
              }
            }
          }
          JOINT Bip001_Head
          {
            OFFSET 1.09673e-005 11.2744 2.05948
            CHANNELS 3 Zrotation Xrotation Yrotation
            End Site
            {
              OFFSET 2.89576e-005 20.8808 -2.77728e-005
            }
          }
        }
      }
    }
  }
}
MOTION
Frames:	12
Frame Time:	0.04
37.1686 95.3348 -34.3354 -0.677911 -3.25619 -8.0003 0.54231 3.00524 -0.808551 3.87624 -4.16512 8.25134 -1.38763 12.8276 2.28191 8.79428 -2.44038 -0.221146 1.68692 -8.88707 0.379148 -6.74331 -6.73286 -0.370289 -1.35634 12.2714 2.12116 -4.51305 -6.1498 2.82079 3.53921 -11.8052 4.21205 1.12396 5.9924 -1.64499 1.12354 5.99241 -1.64504 3.87317 -4.50528 0.872474 -23.8944 8.04019 -8.9094 -45.7073 36.3439 -3.88928 12.3157 -4.64107 -24.8856 8.58856 0.0549466 -3.25437 3.18055e-015 6.36111e-015 -0 -8.82782e-032 3.18056e-015 1.59028e-015 19.3306 11.5851 19.9286 57.5717 43.6371 -8.735 -25.0618 20.6016 15.9783 13.1926 -5.32987 9.14594 -3.97569e-016 -3.18055e-015 -3.97569e-016 -3.97569e-016 -3.18056e-015 -3.97569e-016 -1.53915 -4.19588 2.14624 
36.8201 95.3502 -34.2628 -0.491226 -3.12768 -9.62853 0.548031 3.01003 -0.82709 3.91381 -3.6127 11.1397 -1.19914 12.1851 1.14662 9.01794 -1.95295 -0.274082 1.89534 -8.96555 0.107161 -6.72058 -7.5858 1.30018 -1.03516 12.9585 1.90593 -4.40613 -6.27215 2.81663 3.25246 -11.0827 4.05884 1.14124 6.01169 -1.68663 1.14167 6.01171 -1.68652 3.89635 -3.8058 2.33464 -23.6677 7.93622 -10.363 -44.4754 34.4634 -5.38935 11.8086 -6.24563 -26.465 7.90269 -0.00973738 -3.46119 9.54166e-015 6.36111e-015 -3.18055e-015 6.36111e-015 3.18056e-015 -3.18055e-015 19.996 10.5414 18.8075 61.407 45.0585 -11.8626 -21.4193 22.8873 12.5408 16.3406 -5.68306 12.1021 0 0 -3.97569e-016 4.41391e-032 3.18056e-015 -7.95139e-016 -2.09296 -5.35016 3.69865 
36.5469 95.3624 -34.122 -0.245316 -2.94302 -10.1858 0.566318 2.98182 -0.968305 3.74655 -3.43327 11.9375 -0.966162 11.8668 1.25632 8.29262 -2.1371 -0.240181 1.85697 -8.51053 0.033218 -6.81926 -8.13581 1.59102 -0.928333 13.5858 1.88476 -4.2908 -6.61433 3.08319 3.10519 -10.6953 3.96349 1.19434 5.95338 -1.97027 1.19289 5.95334 -1.97029 3.85955 -3.30562 3.58923 -23.3672 7.94991 -11.6828 -43.3982 33.3947 -6.83394 11.6799 -6.90476 -28.0718 9.15993 -0.31219 -4.09142 6.36111e-015 0 -1.59028e-015 3.18055e-015 1.59028e-015 -0 20.6089 9.40799 16.7699 63.4687 40.3923 -13.9208 -20.4103 23.8474 11.7363 20.6897 -3.53691 11.1322 -3.18055e-015 0 2.38542e-015 -4.77083e-015 -3.18056e-015 3.18055e-015 -2.49686 -5.96721 5.00159 
36.3248 95.3511 -33.8657 -0.0739052 -2.90653 -10.5038 0.585007 2.95849 -1.12179 3.55862 -3.11839 11.7383 -0.811606 11.6255 2.06346 7.52492 -2.47513 -0.186202 1.77934 -8.1854 0.00471781 -6.83936 -8.3087 1.85869 -0.953819 14.0614 1.92709 -4.38791 -7.01212 3.18383 3.04448 -10.5464 3.94168 1.23347 5.90506 -2.27925 1.23069 5.90528 -2.27885 4.18575 -2.55263 4.52626 -23.5188 7.64199 -12.8541 -42.897 32.797 -7.54927 11.8878 -7.77794 -29.9313 10.1467 -0.210742 -4.6148 3.18055e-015 -3.18055e-015 -3.18055e-015 1.32417e-031 1.59028e-015 -4.77083e-015 20.3273 7.89116 14.4914 65.2496 36.4274 -16.1868 -21.2431 24.3187 12.0993 21.2226 -3.19298 10.8232 0 6.36111e-015 -0 -8.82782e-032 3.18056e-015 1.59028e-015 -3.23493 -6.69768 6.16183 
36.1095 95.3244 -33.5968 -0.115205 -3.02985 -10.8463 0.637175 2.97881 -1.28562 3.66533 -2.72523 13.4716 -0.679707 11.65 0.683879 7.83289 -2.40265 -0.210325 1.72805 -8.38371 0.0969158 -6.67788 -8.27688 2.2276 -1.05358 14.4351 2.0061 -4.5194 -7.31049 3.25094 3.04241 -10.5273 3.91564 1.34632 5.94215 -2.60963 1.34395 5.9419 -2.60966 4.16411 -2.29125 5.29742 -23.257 7.63443 -13.5223 -42.6847 32.2367 -7.8956 12.4185 -7.3657 -31.8421 10.6766 -0.647188 -5.63931 -3.18055e-015 3.18055e-015 1.59028e-015 -3.18055e-015 4.77083e-015 -0 20.0742 6.87976 12.3487 66.8745 34.1322 -18.5086 -22.8738 22.5599 12.7887 19.9723 -4.01931 11.6791 -3.18055e-015 3.18055e-015 -3.18055e-015 -4.77083e-015 0 -1.59028e-015 -3.21568 -6.97114 6.92291 
35.9699 95.2783 -33.419 -0.0447607 -3.01225 -11.0367 0.658036 2.96846 -1.48696 3.73213 -2.701 14.2616 -0.686193 11.9883 0.362079 7.72446 -2.75628 -0.184072 1.74272 -8.27877 0.0525282 -6.60665 -8.46643 2.90104 -1.02141 14.9278 2.08708 -4.76824 -7.60041 2.89287 3.05369 -10.5453 3.91095 1.3946 5.91864 -3.01397 1.3949 5.91866 -3.01398 4.00667 -2.24656 5.87869 -22.7882 7.67206 -13.7691 -42.6087 32.6458 -8.00321 13.5842 -6.28054 -33.7538 11.1538 -0.86266 -5.71522 -9.54166e-015 3.18055e-015 3.18055e-015 -6.36111e-015 3.18056e-015 1.59028e-015 20.1234 6.2666 10.6963 66.8558 30.9127 -19.651 -23.6462 20.1738 13.6715 16.0321 -5.989 13.2711 1.59028e-015 3.18055e-015 -7.95139e-016 4.77083e-015 9.54167e-015 -7.95139e-016 -2.63613 -6.90111 7.35757 
35.8987 95.2236 -33.3191 -0.0127832 -2.82469 -11.2306 0.681786 2.93644 -1.66195 3.77364 -2.83388 14.1838 -0.860244 12.1408 0.765226 8.50117 -2.4314 -0.233608 2.02271 -8.87152 -0.130876 -6.56092 -8.84127 3.55911 -0.870349 15.3896 1.94421 -4.94847 -7.80495 2.68195 3.14219 -10.714 3.86818 1.45052 5.85165 -3.36546 1.45153 5.85174 -3.36546 4.60562 -1.33746 6.22312 -23.1095 6.92813 -14.2835 -42.5808 33.4499 -7.97635 14.4562 -5.79761 -35.0193 10.4799 -0.799425 -6.10202 -3.31043e-032 -2.38542e-015 -7.95139e-016 3.18055e-015 -6.36111e-015 -1.59028e-015 19.8168 5.23998 10.1544 65.8281 27.8839 -20.4338 -23.3613 15.2851 14.3967 11.0523 -8.53584 13.2196 7.95139e-016 -9.54166e-015 3.97569e-016 7.95139e-016 -6.36111e-015 7.95139e-016 -2.98131 -7.99716 7.96351 
35.8611 95.1634 -33.1873 -0.16429 -2.83551 -11.689 0.740981 2.97149 -1.76696 3.97288 -2.86884 14.4738 -1.04413 12.6419 0.994816 8.9088 -2.54695 -0.235803 2.11637 -9.09545 -0.169055 -6.40071 -9.03592 3.9688 -0.876925 15.7468 2.04124 -5.06811 -7.96432 2.69522 3.16346 -10.7494 3.84769 1.57537 5.91836 -3.57912 1.57606 5.91841 -3.57927 4.65014 -1.14245 6.37692 -22.991 6.78229 -14.515 -42.4678 34.2412 -7.64101 15.449 -4.48798 -35.8343 10.3004 -1.50942 -6.98083 -6.36111e-015 3.18055e-015 -2.38542e-015 3.18055e-015 1.98785e-015 -2.78299e-015 19.8609 4.8725 9.57212 64.1638 24.5121 -19.8993 -22.9516 9.42183 15.0707 8.58272 -9.92388 13.1456 -2.98177e-016 6.36111e-015 -0 -4.96962e-017 9.54167e-015 -0 -2.75963 -8.35786 8.09798 
35.9103 95.0988 -33.0869 -0.164588 -2.76875 -12.225 0.75517 3.0127 -1.85032 4.00703 -3.11927 14.4221 -1.09607 13.3555 1.73143 8.11585 -3.44522 -0.145398 1.84113 -8.64432 0.0189635 -6.37674 -9.46257 4.35711 -0.89643 16.238 2.02951 -5.10214 -8.14891 2.86871 3.18461 -10.8029 3.86071 1.61419 5.99902 -3.74814 1.61562 5.99908 -3.74819 4.48004 -1.32033 6.63478 -22.7477 6.9868 -14.5599 -42.1436 35.4265 -7.37857 15.7059 -4.11714 -36.0017 10.3087 -1.74961 -7.4213 3.18055e-015 -1.19271e-015 1.19271e-015 -6.62086e-032 2.38542e-015 1.59028e-015 20.186 4.91771 9.23094 62.0231 20.5568 -18.5269 -23.5295 7.38094 16.143 3.94302 -11.8593 13.2527 2.78298e-015 0 7.95139e-016 3.97569e-015 -3.18056e-015 -0 -2.64802 -8.37603 8.26652 
36.0139 95.0622 -32.9766 -0.254654 -2.72888 -12.822 0.777243 3.04044 -1.8991 4.01064 -3.14087 14.2303 -1.28094 13.6202 2.5174 8.59174 -3.42768 -0.161916 1.84831 -8.76535 0.0474241 -6.35694 -9.66312 4.66286 -0.889067 16.3487 2.15577 -5.08215 -8.14608 3.04647 3.23081 -10.9471 3.93248 1.65947 6.05317 -3.84696 1.65903 6.0531 -3.8468 3.91955 -1.98084 6.89113 -22.1164 7.56604 -14.3128 -42.0885 37.2236 -6.80753 15.2141 -4.92771 -35.5782 9.92868 -1.75262 -7.60004 -3.18055e-015 -4.96962e-015 -2.98177e-015 -8.68988e-032 -1.78906e-015 -2.78299e-015 20.9525 5.44181 8.98526 58.2881 13.8712 -16.6267 -23.6395 7.10488 19.196 -1.77438 -13.1526 13.5204 5.56597e-015 4.77083e-015 1.59028e-015 4.37326e-015 3.18056e-015 3.18055e-015 -1.93951 -7.84593 8.22869 
36.1464 94.9872 -32.7854 -0.56498 -3.04115 -13.4141 0.817112 3.11017 -1.91877 4.10956 -2.89691 14.7202 -1.29506 14.2099 2.38256 9.24528 -3.49387 -0.170731 1.83921 -9.05605 0.116803 -6.25208 -9.44885 4.53028 -1.05914 16.4711 2.31124 -4.93446 -8.29582 3.60242 3.25158 -11.0095 3.9522 1.74123 6.19085 -3.89122 1.74163 6.19083 -3.89076 3.54572 -2.27271 7.26011 -21.6432 7.84437 -14.2593 -42.8293 38.2439 -5.26347 14.3418 -5.63819 -35.3132 8.9344 -1.24886 -7.44131 -6.36111e-015 1.59028e-015 3.18055e-015 -6.36111e-015 1.19271e-015 -0 21.389 5.62571 8.83766 54.9669 6.22651 -16.655 -26.1009 6.59655 26.6176 -8.47304 -13.6672 12.1037 -2.38542e-015 0 -6.36111e-015 1.78906e-015 0 -6.36111e-015 -1.64198 -7.71718 8.42858 
36.4052 94.8707 -32.6338 -0.901395 -3.26394 -14.0626 0.85702 3.16572 -1.84144 4.24582 -2.867 14.3608 -1.64764 15.019 3.03135 10.5002 -3.48222 -0.200912 1.89193 -9.53634 0.236044 -6.30099 -9.4623 4.1195 -1.06811 16.7981 2.48777 -4.75866 -8.48747 4.28055 3.32266 -11.2267 4.04455 1.8198 6.30182 -3.73871 1.8198 6.30183 -3.7387 3.36464 -2.1795 7.41851 -21.5044 7.75283 -14.2358 -43.9235 38.9939 -3.29389 14.0899 -5.54609 -34.4745 8.98489 -1.43449 -7.63431 6.36111e-015 -1.98785e-015 3.97569e-016 6.36111e-015 1.19271e-015 -1.59028e-015 21.4729 5.4978 8.8661 51.3257 -2.77758 -17.9677 -32.3494 7.90741 38.8095 -15.364 -14.1126 11.3723 -2.13693e-015 1.19271e-015 -0 -2.5345e-015 2.28602e-015 -0 -1.81136 -8.0648 8.5703 
